<?xml version="1.0" standalone="no"?>
<!DOCTYPE svg PUBLIC "-//W3C//DTD SVG 20010904//EN"
 "http://www.w3.org/TR/2001/REC-SVG-20010904/DTD/svg10.dtd">
<svg version="1.0" xmlns="http://www.w3.org/2000/svg"
 width="1024.000000pt" height="1024.000000pt" viewBox="0 0 1024.000000 1024.000000"
 preserveAspectRatio="xMidYMid meet">
<metadata>
Created by potrace 1.11, written by Peter Selinger 2001-2013
</metadata>
<g transform="translate(0.000000,1024.000000) scale(0.100000,-0.100000)"
fill="#000000" stroke="none">
<path d="M4838 10195 c-3 -2 -185 -17 -218 -17 -8 0 -45 -4 -82 -9 -37 -5 -91
-11 -120 -14 -29 -3 -64 -8 -78 -10 -44 -7 -84 -15 -110 -20 -13 -2 -42 -7
-65 -11 -22 -3 -69 -12 -105 -21 -36 -8 -76 -17 -90 -20 -25 -4 -154 -37 -265
-68 -220 -60 -490 -163 -762 -291 -39 -19 -76 -34 -81 -34 -6 0 -12 -4 -14 -8
-1 -4 -30 -21 -63 -37 -120 -60 -465 -266 -520 -312 -5 -4 -30 -21 -55 -38
-88 -59 -273 -203 -404 -315 -152 -129 -424 -403 -541 -545 -22 -27 -54 -65
-70 -84 -17 -20 -46 -56 -65 -81 -19 -25 -39 -50 -45 -57 -24 -29 -35 -45
-122 -168 -219 -313 -388 -621 -538 -980 -57 -137 -151 -400 -160 -446 -2 -11
-7 -24 -10 -29 -3 -5 -8 -18 -10 -27 -2 -10 -22 -88 -44 -173 -22 -85 -43
-168 -46 -185 -2 -16 -7 -41 -10 -55 -3 -14 -10 -47 -15 -75 -5 -27 -11 -61
-14 -75 -8 -44 -18 -104 -22 -140 -2 -19 -6 -46 -9 -60 -5 -22 -8 -51 -20
-175 -25 -269 -26 -857 -1 -992 2 -10 7 -48 10 -85 4 -37 9 -77 11 -90 14 -83
17 -106 20 -128 1 -14 5 -38 9 -55 7 -34 12 -58 26 -135 6 -30 12 -64 15 -75
2 -11 13 -58 24 -105 34 -144 130 -459 172 -565 4 -11 31 -78 59 -150 62 -155
282 -607 310 -635 3 -3 16 -25 29 -50 13 -25 34 -58 45 -75 12 -16 21 -33 21
-37 0 -3 10 -18 21 -31 12 -14 25 -34 29 -46 3 -12 11 -21 16 -21 5 0 9 -6 9
-13 0 -8 9 -22 20 -32 11 -10 20 -22 20 -26 0 -5 16 -30 35 -56 19 -27 39 -53
43 -58 260 -353 532 -650 812 -885 36 -30 72 -62 80 -70 8 -9 31 -27 50 -40
19 -13 40 -29 45 -35 16 -17 191 -146 280 -205 44 -29 82 -57 83 -62 2 -4 8
-8 13 -8 5 0 39 -19 76 -43 38 -24 89 -55 114 -69 83 -47 94 -53 99 -58 3 -3
37 -21 75 -40 39 -19 72 -38 73 -42 2 -5 8 -8 14 -8 5 0 61 -25 124 -55 96
-46 167 -77 349 -150 11 -5 23 -9 28 -10 4 -2 9 -4 12 -5 3 -1 8 -3 13 -5 4
-1 14 -5 22 -8 22 -10 290 -98 325 -107 17 -5 73 -20 126 -34 81 -22 160 -40
264 -62 11 -2 43 -8 70 -14 28 -6 67 -13 89 -15 21 -3 41 -7 45 -9 4 -3 36 -8
71 -11 36 -4 67 -8 70 -10 3 -2 34 -6 70 -9 36 -4 79 -9 95 -11 32 -4 172 -15
270 -21 71 -4 478 -4 550 0 168 11 386 31 440 42 11 3 38 7 60 10 175 24 667
139 712 167 5 3 20 8 34 11 70 13 425 151 584 227 50 23 92 43 95 44 20 5 250
129 375 203 139 83 367 235 470 314 132 102 222 177 359 298 104 92 367 362
451 464 22 27 45 54 50 60 73 79 385 511 385 532 0 3 13 24 28 47 70 103 239
423 320 607 23 53 132 331 137 350 0 3 9 30 20 60 10 30 20 60 21 66 1 7 11
38 22 70 11 33 25 79 32 104 12 40 15 54 24 95 1 6 5 16 9 23 5 6 6 12 3 12
-2 0 0 15 5 33 12 37 17 61 24 102 3 17 8 38 11 47 5 19 12 49 19 93 3 17 8
44 12 60 3 17 7 37 8 45 10 69 18 116 20 120 2 3 6 37 10 75 4 39 9 78 10 87
2 9 6 45 10 80 3 35 8 83 10 108 28 285 18 820 -21 1070 -3 19 -7 50 -9 69 -4
33 -9 66 -19 121 -3 14 -10 52 -15 85 -6 33 -14 71 -17 85 -3 14 -8 39 -10 55
-3 17 -19 81 -35 143 -16 62 -31 120 -33 130 -1 9 -5 24 -8 32 -3 8 -16 49
-28 90 -129 434 -343 897 -589 1275 -25 39 -50 77 -56 86 -12 19 -95 139 -107
154 -4 6 -27 35 -51 66 -23 31 -53 71 -67 89 -96 127 -259 309 -415 465 -108
107 -155 151 -260 244 -78 70 -285 234 -355 281 -12 8 -45 32 -73 53 -28 20
-54 37 -58 37 -4 0 -14 6 -21 13 -17 17 -191 127 -248 157 -25 14 -52 30 -60
36 -58 46 -650 324 -689 324 -6 0 -19 4 -29 9 -52 27 -227 85 -377 126 -55 15
-107 30 -115 33 -8 3 -20 6 -26 7 -197 43 -294 64 -314 68 -14 3 -36 8 -49 11
-13 3 -49 8 -79 11 -30 3 -57 7 -61 9 -3 2 -33 7 -66 11 -33 3 -73 8 -90 10
-37 4 -131 14 -205 21 -56 6 -687 14 -692 9z m398 -1802 c25 -15 102 -88 172
-161 127 -133 264 -272 292 -297 23 -20 92 -54 121 -59 57 -10 166 62 314 205
261 254 333 312 412 329 30 7 39 5 60 -16 26 -27 52 -80 64 -134 4 -19 10 -46
13 -60 20 -85 27 -463 12 -600 -19 -165 -51 -312 -82 -372 -15 -29 -15 -29 23
-44 21 -8 52 -22 70 -30 17 -8 34 -14 38 -14 13 0 142 -65 225 -114 122 -71
261 -170 420 -301 85 -70 197 -193 313 -345 33 -43 159 -241 180 -284 24 -47
24 -48 31 -21 6 25 10 156 5 181 -1 5 -1 11 0 14 7 18 4 170 -2 170 -5 0 -5 5
-2 11 4 6 7 126 8 267 1 273 2 285 52 332 22 20 38 25 88 27 76 2 124 -14 149
-48 19 -25 20 -58 19 -1405 0 -863 -4 -1398 -10 -1429 -40 -207 -165 -385
-412 -589 -14 -11 -32 -25 -41 -31 -23 -15 -152 -98 -174 -112 -100 -63 -394
-187 -638 -268 -113 -37 -289 -86 -293 -81 -3 2 -19 -2 -38 -9 -18 -8 -35 -12
-38 -9 -3 3 -12 2 -19 -2 -7 -5 -22 -9 -33 -10 -11 0 -33 -4 -50 -8 -16 -3
-41 -8 -55 -11 -14 -3 -72 -14 -130 -25 -58 -10 -123 -22 -145 -25 -23 -3 -52
-7 -65 -10 -13 -2 -44 -7 -69 -10 -75 -8 -124 -15 -161 -20 -19 -2 -69 -7
-110 -11 -41 -3 -95 -7 -120 -9 -283 -24 -809 -24 -1015 -1 -146 17 -171 20
-245 31 -30 4 -66 9 -80 11 -56 7 -108 15 -165 24 -33 5 -77 12 -97 15 -363
50 -646 125 -918 242 -19 8 -44 19 -55 23 -90 37 -212 93 -219 101 -6 5 -15 9
-22 9 -6 0 -54 23 -105 51 -333 183 -545 413 -620 674 l-23 80 -1 1379 c-1
1546 -6 1434 71 1471 93 45 214 -5 233 -97 4 -18 6 -232 6 -475 0 -244 2 -443
5 -443 3 0 14 17 26 38 168 302 260 422 450 591 27 24 63 55 79 70 100 90 281
221 395 287 85 50 282 144 299 144 19 0 20 18 2 56 -20 44 -46 144 -56 219 -4
28 -9 61 -12 75 -16 72 -7 573 12 640 2 8 7 31 10 50 11 66 37 132 66 165 26
29 33 32 62 25 86 -21 96 -28 342 -275 161 -162 212 -207 260 -231 72 -35 88
-36 140 -11 75 37 121 75 286 239 322 319 366 342 495 261z"/>
<path d="M3400 5908 c-36 -3 -76 -9 -90 -12 -14 -3 -38 -9 -55 -12 -28 -6 -37
-10 -85 -34 -11 -5 -27 -10 -35 -10 -8 0 -15 -4 -15 -10 0 -5 -9 -10 -20 -10
-11 0 -20 -3 -20 -8 0 -4 -20 -18 -44 -31 -44 -25 -176 -152 -213 -206 -57
-84 -101 -186 -129 -300 -4 -16 -8 -82 -9 -145 -2 -123 21 -243 66 -339 49
-105 158 -241 246 -307 38 -28 144 -89 168 -97 11 -3 39 -13 62 -21 44 -16 77
-23 158 -35 28 -3 824 -6 1770 -5 l1720 1 80 22 c282 76 485 272 572 551 33
104 37 303 9 405 -9 33 -18 67 -21 76 -2 9 -8 25 -13 35 -5 11 -20 39 -32 64
-76 147 -203 275 -348 349 -57 29 -181 68 -242 76 -69 9 -3392 12 -3480 3z
m340 -413 c62 -14 179 -84 203 -122 4 -6 13 -18 20 -25 68 -75 98 -215 72
-343 -20 -102 -113 -218 -215 -269 -30 -15 -57 -28 -60 -27 -3 0 -14 -2 -25
-5 -102 -25 -253 5 -329 66 -37 28 -96 87 -96 94 0 5 -8 20 -19 34 -27 39 -52
123 -55 184 -12 267 238 473 504 413z m2999 -15 c68 -27 97 -46 149 -100 156
-160 152 -411 -9 -570 -28 -27 -56 -50 -64 -50 -7 0 -18 -6 -24 -13 -29 -35
-175 -61 -258 -46 -58 11 -153 48 -153 60 0 5 -6 9 -14 9 -20 0 -107 99 -134
152 -51 104 -52 237 -1 353 14 33 73 110 104 137 27 24 154 86 185 90 59 9
170 -2 219 -22z"/>
</g>
</svg>
