<svg xmlns="http://www.w3.org/2000/svg" width="40" height="40" viewBox="0 0 40 40">
  <g fill="none" transform="translate(6 3)">
    <path stroke="#24344B" d="M27.7410458,20.7019322 C25.860135,29.6319516 18.2185501,35.0661209 10.6733431,32.8397367 C3.13165684,30.6133526 -1.45971932,21.5682113 0.4216315,12.6387127 C2.30166207,3.7076514 9.94280692,-1.72755966 17.4858135,0.498824478 C25.0305803,2.72520861 29.6215164,11.7713918 27.7406057,20.7019322 L27.7410458,20.7019322 Z"/>
    <path fill="#24344B" d="M20.4379058,14.4862012 C20.717798,12.2681517 19.2910519,11.0757808 17.3401681,10.2803459 L17.9730061,7.27571707 L16.4274379,6.81991779 L15.8113231,9.74536779 C15.4055674,9.62555769 14.9883696,9.51251947 14.5738123,9.40052308 L15.194328,6.45579928 L13.65008,6 L13.016802,9.00358702 C12.6805793,8.91294808 12.3505177,8.82335096 12.030138,8.72906563 L12.0318983,8.71968918 L9.90102095,8.08990481 L9.48998431,10.0433303 C9.48998431,10.0433303 10.6363981,10.3543156 10.6121936,10.3735894 C11.2379903,10.5585137 11.3515314,11.0486933 11.3321678,11.4372947 L10.6113134,14.8602171 C10.6544414,14.8732399 10.7103319,14.8919928 10.7719434,14.9211639 L10.609113,14.8732399 L9.5982445,19.6682483 C9.52167022,19.8932829 9.32759403,20.2308349 8.89015246,20.1026901 C8.90555533,20.1292567 7.76706303,19.7708683 7.76706303,19.7708683 L7,21.8649404 L9.01117502,22.4582608 C9.38524478,22.5692154 9.75183314,22.6853791 10.1122603,22.7947709 L9.47282111,25.834301 L11.0161889,26.2901002 L11.6499071,23.2833877 C12.0710656,23.4188252 12.4803419,23.5438445 12.8808166,23.6615709 L12.2497389,26.6542188 L13.794867,27.110018 L14.4343063,24.0767389 C17.0690776,24.6669339 19.0507671,24.4288764 19.8838425,21.608651 C20.5558478,19.3374683 19.8508363,18.0273709 18.4645778,17.1725519 C19.4741261,16.8959469 20.2345879,16.1098885 20.4374657,14.4862012 L20.4379058,14.4862012 Z M16.9071274,20.3459567 C16.4291983,22.6171394 13.1989959,21.3898673 12.1511605,21.0814865 L12.9996388,17.0553464 C14.0470341,17.364769 17.4053003,17.9773632 16.9075675,20.3459567 L16.9071274,20.3459567 Z M17.3846164,14.4533837 C16.9489352,16.5193264 14.2600338,15.4696858 13.3873511,15.2123546 L14.1566145,11.5607512 C15.0292972,11.8180825 17.8387811,12.2983647 17.3846164,14.4533837 L17.3846164,14.4533837 Z"/>
  </g>
</svg>
