<svg xmlns="http://www.w3.org/2000/svg" width="40" height="40" viewBox="0 0 40 40">
  <g fill="none" transform="translate(1 5)">
    <path fill="#7D9FCE" d="M25.6597938,0.0391752577 C25.4639175,-0.052233677 25.3072165,0.0391752577 25.3072165,0.261168385 L25.3072165,26.756701 L36.9161512,32.5546392 C37.4907216,32.8419244 37.9608247,32.5546392 37.9608247,31.9017182 L37.9608247,6.39862543 C37.9608247,6.26804124 37.8955326,6.15051546 37.7780069,6.09828179 L25.6597938,0.0391752577 Z"/>
    <path fill="#50709E" d="M12.6536082,20.4364261 L25.0982818,0.208934708 C25.2158076,0.0261168385 25.4639175,-0.052233677 25.6597938,0.052233677 L37.6865979,6.05910653 C37.8302405,6.13745704 37.8955326,6.32027491 37.8041237,6.46391753 L25.3072165,26.756701 L12.6536082,20.4364261 Z"/>
    <path fill="#314765" d="M1.39725086,0.574570447 C0.626804124,0.182817869 0.365635739,0.470103093 0.822680412,1.21443299 L12.6536082,20.4364261 L25.3072165,26.7697595 L12.7319588,6.33333333 C12.6797251,6.2419244 12.6013746,6.1766323 12.5099656,6.12439863 L1.39725086,0.574570447 Z"/>
    <path fill="#24344B" d="M12.6536082,31.9147766 C12.6536082,32.5546392 12.1835052,32.8549828 11.6089347,32.5676976 L0.705154639,27.1092784 C0.313402062,26.9134021 0,26.4041237 0,25.9731959 L0,0.652920962 C0,0.221993127 0.313402062,0.0261168385 0.705154639,0.221993127 L12.4969072,6.12439863 C12.5883162,6.1766323 12.6536082,6.26804124 12.6536082,6.37250859 L12.6536082,31.9147766 Z"/>
  </g>
</svg>
