<svg xmlns="http://www.w3.org/2000/svg" width="40" height="40" viewBox="0 0 40 40">
  <g fill="#24344B" transform="translate(2 2)">
    <path d="M22.6903906 2.16535156C22.1585547.528144531 20.4000781-.367773437 18.7631445.164335938 17.1259375.696171875 16.2300195 2.45464844 16.7621289 4.09158203L24.8212891 28.8875781C25.3747266 30.4170508 27.0268359 31.2764648 28.6127734 30.8200977 30.2670703 30.3439063 31.2753711 28.5869336 30.7475 26.9623047L22.6903906 2.16535156M10.2027734 6.22289063C9.67066406 4.58582031 7.91232422 3.68990234 6.27539062 4.22173828 4.63804687 4.75371094 3.74199219 6.51205078 4.27423828 8.14925781L12.3335352 32.9453906C12.8868359 34.4747266 14.539082 35.3342773 16.1250195 34.8775 17.7791797 34.401582 18.7874805 32.6446094 18.2596094 31.019707L10.2027734 6.22289063"/>
    <path d="M32.8346484,22.7014648 C34.4718555,22.1696289 35.3675,20.4114258 34.8356641,18.774082 C34.3038281,17.1371484 32.5453516,16.2410937 30.908418,16.7730664 L6.11242188,24.8325 C4.58294922,25.3856641 3.72353516,27.0377734 4.17990234,28.6237109 C4.65609375,30.2778711 6.41306641,31.2863086 8.03769531,30.7584375 L32.8346484,22.7016016"/>
    <polyline points="11.28 29.705 17.207 27.779 15.281 21.852 9.354 23.779 11.28 29.705"/>
    <path d="M23.7681445 25.647207C26.0086914 24.9194531 28.0911914 24.2426953 29.6946289 23.7216602L27.7685352 17.7935352 21.8417773 19.7199023 23.7681445 25.647207M28.7771094 10.2137109C30.4141797 9.681875 31.3100977 7.92353516 30.7782617 6.28619141 30.2464258 4.64925781 28.4879492 3.75333984 26.8507422 4.28517578L2.05460937 12.3447461C.525273437 12.8976367-.334277344 14.5498828.1225 16.1358203.598417969 17.7898437 2.35539062 18.7982812 3.98029297 18.2704102L28.7771094 10.2135742"/>
    <path d="M7.22175781 17.2174023C8.83572266 16.6929492 10.916582 16.0167383 13.1490625 15.291582 12.4213086 13.0507617 11.7445508 10.9682617 11.2235156 9.36455078L5.29539062 11.2911914 7.22175781 17.2174023M19.709375 13.16L25.6369531 11.2339063C24.9949588 9.25783779 24.352882 7.28179612 23.7107227 5.30578125L17.7830078 7.23242188 19.709375 13.16"/>
  </g>
</svg>
