<svg xmlns="http://www.w3.org/2000/svg" xmlns:xlink="http://www.w3.org/1999/xlink" width="40" height="40" viewBox="0 0 40 40">
  <defs>
    <path id="twitter-a" d="M26.0541028,3.00771367 L26.0541028,3 L27.74211,3 L28.3588819,3.14655965 C28.7700739,3.24170772 29.1433832,3.36639913 29.4788097,3.52067245 C29.8142687,3.67494576 30.1388855,3.85494416 30.4526601,4.06062906 C30.7664671,4.26631396 31.0510586,4.47589426 31.3064346,4.68929282 C31.5596357,4.90014588 31.7868674,5.12384219 31.9881298,5.36038176 C32.1871849,5.5995054 32.4977457,5.66121472 32.9197475,5.54550974 C33.3417493,5.42980475 33.7962128,5.26909052 34.283138,5.06340562 C34.7700631,4.85772072 35.2515996,4.62631074 35.7276826,4.36917569 C36.203798,4.11204064 36.4938106,3.9487809 36.597688,3.87935791 C36.6993904,3.80738941 36.7535041,3.76882108 36.7599964,3.76365292 L36.7664563,3.75208242 L36.7989179,3.73279826 L36.8313796,3.71351409 L36.8638413,3.69422993 L36.896303,3.67494576 L36.9027953,3.66337526 L36.9125338,3.6556616 L36.9223048,3.64794793 L36.9287647,3.63637743 L36.9612263,3.62480694 L36.993688,3.61709327 L36.9872281,3.67494576 L36.9774572,3.73279826 L36.9612263,3.79065075 L36.9449955,3.84850325 L36.9287647,3.88707157 L36.9125338,3.9256399 L36.896303,3.9834924 C36.8854932,4.02206073 36.8746835,4.07347231 36.8638413,4.13776572 C36.8530316,4.20205912 36.7502254,4.4591556 36.5554554,4.9091323 C36.3606853,5.359109 36.1172227,5.81548804 35.8250676,6.27830799 C35.5329125,6.74112795 35.2710766,7.09078842 35.0395275,7.32736655 C34.8058034,7.56649019 34.6510586,7.73360676 34.5752931,7.82875483 C34.49956,7.92644841 34.407596,8.01642832 34.2993688,8.09873314 L34.1370604,8.22600862 L34.1045987,8.24529279 L34.0721371,8.26457695 L34.0656772,8.27614745 L34.0559062,8.28386112 L34.0461677,8.29157478 L34.0396754,8.30314528 L34.0072137,8.32242945 L33.974752,8.34171361 L33.9682922,8.35328411 L33.9585212,8.36099778 L33.9487827,8.36871144 L33.9422904,8.38028194 L33.9358305,8.39185244 L33.9260595,8.39956611 L33.916321,8.40727977 L33.9098287,8.41885027 L34.0721371,8.41885027 L34.981064,8.18744029 C35.5870261,8.03316698 36.1659152,7.84676624 36.7177638,7.62819952 L37.594229,7.28108456 L37.6916141,7.24251623 L37.7403066,7.22323206 L37.7727683,7.2039479 L37.8052299,7.18466373 L37.8376916,7.16537957 L37.8701533,7.1460954 L37.9350766,7.1345249 L38,7.12681124 L38,7.2039479 L37.9837692,7.21166156 L37.9675383,7.22323206 L37.9610784,7.23480256 L37.9513075,7.24251623 L37.941569,7.25022989 L37.9350766,7.26180039 L37.9286168,7.27337089 L37.9188458,7.28108456 L37.9091073,7.28879822 L37.902615,7.30036872 L37.8961551,7.31193922 L37.8863841,7.31965289 L37.8701533,7.35822121 L37.8539225,7.39678954 L37.8441839,7.40450321 C37.8398665,7.41221688 37.7024563,7.63074503 37.4319206,8.06016481 C37.1614175,8.4921301 37.0153399,8.71065825 36.993688,8.71582641 C36.9720685,8.72354007 36.9417493,8.7621084 36.9027953,8.83153139 C36.8660162,8.9034999 36.6366096,9.19021686 36.2146078,9.69160514 C35.792606,10.1929934 35.3793039,10.6390747 34.9746041,11.0299262 C34.5677619,11.4233231 34.3621497,11.9067 34.3578323,12.4800953 C34.3513399,13.0509066 34.3264418,13.696309 34.283138,14.4162255 C34.2398665,15.1361805 34.1587124,15.9139494 34.0396754,16.7496094 C33.9206709,17.5852694 33.7367106,18.5301935 33.4878269,19.5843816 C33.2389757,20.6385698 32.9359784,21.6670714 32.5788999,22.669848 C32.2218215,23.6726245 31.8485122,24.5725393 31.458972,25.369631 C31.0694319,26.1667227 30.7123535,26.8416684 30.3877367,27.3944683 C30.0631199,27.9472682 29.7331145,28.4679406 29.3976555,28.9564856 C29.062229,29.4450307 28.6380848,29.995285 28.1251903,30.6072101 C27.6101208,31.2165897 27.3288079,31.5508614 27.2811867,31.6099867 C27.2314229,31.6665664 27.0193508,31.8774195 26.6449053,32.2425073 C26.2726997,32.6101792 25.8723174,32.9778511 25.4438233,33.3455615 C25.0175041,33.7106879 24.625789,34.0153777 24.2687106,34.2596309 C23.9116321,34.5038842 23.4809955,34.7828489 22.9767358,35.0965637 C22.4746835,35.412824 21.9314698,35.7059433 21.3471596,35.9759216 C20.7628494,36.2458999 20.1460775,36.496594 19.496844,36.728004 C18.8476105,36.959414 18.2200289,37.1394124 17.6140667,37.2679606 C17.0081371,37.3965089 16.3210207,37.5058115 15.5527502,37.5957914 L14.4003607,37.7307806 L14.4003607,37.7500647 L12.2903517,37.7500647 L12.2903517,37.7307806 L12.0144274,37.7114964 C11.8304995,37.6986531 11.6790009,37.6857713 11.5599639,37.6729281 C11.4409594,37.6600848 10.9918846,37.5893505 10.2128043,37.4608023 C9.43372408,37.332254 8.82237331,37.2036672 8.37871957,37.075119 C7.93509829,36.9465707 7.27502254,36.7022789 6.39855726,36.3423207 C5.52209197,35.9823625 4.77222723,35.6185089 4.14896303,35.250837 C3.52787376,34.8857106 3.13833363,34.6543006 2.98034265,34.5566071 C2.8245266,34.461459 2.64923354,34.3432085 2.45446348,34.2017784 L2.16230839,33.9896526 L2.15584851,33.9780821 L2.14607755,33.9703685 L2.13633904,33.9626548 L2.12984671,33.9510843 L2.09738503,33.9318001 L2.06492335,33.912516 L2.05846348,33.9009455 L2.04869252,33.8932318 L2.03895401,33.8855181 L2.03246168,33.8739476 L2.0260018,33.8623771 L2.01623084,33.8546635 L2,33.8546635 L2,33.7775268 L2.03246168,33.7852405 L2.06492335,33.796811 L2.2110009,33.8160951 C2.30838593,33.8289384 2.57350045,33.8482226 3.00631199,33.8739476 C3.439156,33.8996727 3.89900812,33.8996727 4.38593327,33.8739476 C4.87285843,33.8482226 5.37062579,33.7903701 5.87917042,33.7003901 C6.38774752,33.6104102 6.98828855,33.4561369 7.68079351,33.2375702 C8.37333093,33.0190035 9.0095798,32.7593229 9.58957259,32.4584899 C10.1673904,32.1551115 10.57855,31.9288311 10.8231163,31.7796873 C11.0654752,31.6331277 11.4355383,31.3605653 11.9332732,30.9620388 L12.6798918,30.3642297 L12.6863841,30.3526592 L12.6961226,30.3449455 L12.7058936,30.3372318 L12.7123535,30.3256613 L12.7188458,30.3140908 L12.7285843,30.3063772 L12.7383553,30.2986635 L12.7448151,30.287093 L12.7772768,30.2755225 L12.8097385,30.2678088 L12.8162308,30.2292405 L12.8259693,30.1906722 L12.8357403,30.1829585 L12.8422002,30.171388 L12.5825068,30.1521038 C12.4093886,30.1392606 12.2416592,30.1263788 12.0793508,30.1135355 C11.9170424,30.1006923 11.6627701,30.0428398 11.3165014,29.939978 C10.9702651,29.8371163 10.5969558,29.682843 10.1965735,29.4771581 C9.79622362,29.2714732 9.4066835,29.0271814 9.02795311,28.7443598 C8.64925518,28.4615383 8.3754734,28.2262329 8.20667268,28.0385594 C8.04004689,27.8533929 7.82362489,27.5911668 7.55743913,27.2517655 C7.29342831,26.9098187 7.06402164,26.5588083 6.86925158,26.1988501 C6.67448151,25.8388919 6.48837872,25.4235881 6.31094319,24.9530931 L6.04147881,24.2511495 L6.02524797,24.193297 L6.00901713,24.1354445 L5.99927863,24.0968761 L5.99278629,24.0583078 L6.04147881,24.0660215 L6.09017133,24.077592 L6.44724977,24.1354445 C6.68532372,24.1740128 7.058633,24.1868561 7.56717764,24.1740128 C8.07575473,24.1611695 8.42741208,24.1354445 8.62218215,24.0968761 C8.81695221,24.0583078 8.93598918,24.0325827 8.9792606,24.0197395 L9.04418395,24.0004553 L9.12533814,23.9811712 L9.20649234,23.961887 L9.21298467,23.9503165 L9.22272317,23.9426028 L9.23249414,23.9348892 L9.23895401,23.9233187 L9.17403066,23.9040345 L9.1091073,23.8847503 L9.04418395,23.8654662 L8.9792606,23.846182 L8.91433724,23.8268978 C8.87106583,23.8140546 8.79533273,23.7883295 8.6871055,23.7497612 C8.57891073,23.7111929 8.28675564,23.5697628 7.81064022,23.3255096 C7.33455726,23.0812563 6.95582687,22.8434054 6.67448151,22.6119955 C6.39243873,22.3799147 6.12351164,22.1261046 5.86943192,21.8521994 C5.61623084,21.5745074 5.33816411,21.2170947 5.03516682,20.7799998 C4.73220198,20.3429049 4.46169883,19.8350758 4.22362489,19.2565508 C3.98558341,18.6780259 3.80704418,18.125226 3.68800721,17.5981127 C3.56944892,17.0740999 3.49122984,16.5383668 3.4543156,15.997527 L3.39585212,15.1875921 L3.4283138,15.1953057 L3.46077547,15.2068762 L3.49323715,15.2261604 L3.52569883,15.2454446 L3.5581605,15.2647287 L3.59062218,15.2840129 L4.09377818,15.5539912 C4.42923715,15.7339896 4.84581785,15.8882629 5.34355275,16.0168111 C5.84132011,16.1453594 6.13886384,16.2160937 6.23624887,16.228937 L6.38232642,16.2482211 L6.67448151,16.2482211 L6.66802164,16.2366506 L6.65825068,16.228937 L6.64851217,16.2212233 L6.64201984,16.2096528 L6.63555996,16.1980823 L6.625789,16.1903686 L6.6160505,16.182655 L6.60955816,16.1710845 L6.57709648,16.1518003 L6.54463481,16.1325161 L6.53817493,16.1209456 L6.52840397,16.113232 L6.51866546,16.1055183 L6.51217313,16.0939478 L6.47971145,16.0746636 L6.44724977,16.0553795 L6.4407899,16.043809 C6.43429757,16.0386408 6.34122994,15.9563746 6.16158702,15.7969717 C5.98411903,15.6349847 5.79801623,15.425443 5.60324617,15.1683079 C5.4084761,14.9111729 5.21370604,14.6411945 5.01893598,14.358373 C4.82380731,14.0749034 4.6500106,13.7716196 4.49954914,13.4520172 C4.34808296,13.1306274 4.18791704,12.7217645 4.01911632,12.2255444 C3.85249053,11.7318698 3.72588999,11.2343383 3.6393147,10.73295 C3.55277187,10.2315617 3.50407935,9.73661438 3.49323715,9.24806935 C3.48242741,8.75952432 3.49323715,8.34171361 3.52569883,7.99459865 C3.5581605,7.64748368 3.62308386,7.25535948 3.72046889,6.8182646 C3.81785392,6.38116973 3.95854283,5.91834978 4.14247069,5.42980475 L4.41839495,4.69700649 L4.43462579,4.639154 L4.45085663,4.5813015 L4.46062759,4.57358784 L4.46708747,4.56201734 L4.4735798,4.55044684 L4.4833183,4.54273317 L4.49308927,4.55044684 L4.49954914,4.56201734 L4.50604148,4.57358784 L4.51577998,4.5813015 L4.52555095,4.58901517 L4.53201082,4.60058567 L4.53850316,4.61215617 L4.54824166,4.61986983 L4.5644725,4.65843816 L4.58070334,4.69700649 L4.5904743,4.70472016 L4.59693417,4.71629066 L5.03516682,5.2948156 C5.32732191,5.68049889 5.67359062,6.11119142 6.07394049,6.58685463 C6.47432281,7.06251783 6.69613345,7.30935514 6.73940487,7.32736655 C6.78270875,7.34792347 6.8367899,7.40704872 6.90171326,7.50478087 C6.96663661,7.59992893 7.18305861,7.82748208 7.5509468,8.18744029 C7.91886745,8.54739851 8.40037151,8.96524779 8.99549143,9.440911 C9.59064382,9.9165742 10.2506871,10.3858351 10.9756537,10.848655 C11.7006528,11.311475 12.4797331,11.7292857 13.3128945,12.1021257 C14.1460884,12.4749658 14.7303986,12.719219 15.0658251,12.834924 C15.401284,12.950629 15.974752,13.0984614 16.786294,13.2784598 C17.5978359,13.4584582 18.2092191,13.5741631 18.6203787,13.6255747 C19.0315708,13.6769863 19.3129161,13.7065682 19.4643823,13.7142819 L19.6916141,13.7219956 L19.6851542,13.6641431 L19.6753832,13.6062906 L19.6104599,13.1241864 C19.5671885,12.8027966 19.5455365,12.3528199 19.5455365,11.7742949 C19.5455365,11.19577 19.5834193,10.6622543 19.6591524,10.1737093 C19.7349179,9.68516423 19.8485338,9.19021686 20,8.68882858 C20.1514986,8.18744029 20.2997511,7.78501835 20.444725,7.48163987 C20.5919062,7.1808069 20.7845014,6.83754877 21.0225428,6.45186548 C21.2606168,6.06618218 21.5690027,5.66765563 21.9477006,5.25624727 C22.326431,4.8448389 22.7592426,4.47843977 23.2461677,4.15704988 C23.7330929,3.83565999 24.1821677,3.59136819 24.5933273,3.42425162 C25.0045194,3.25713505 25.3507881,3.14783241 25.632101,3.09642082 C25.9134463,3.04500924 26.0541028,3.01542733 26.0541028,3.00771367 Z"/>
  </defs>
  <g fill="none" fill-rule="evenodd">
    <use fill="#24344B" fill-rule="nonzero" xlink:href="#twitter-a"/>
  </g>
</svg>
