<svg xmlns="http://www.w3.org/2000/svg" width="40" height="40" viewBox="0 0 40 40">
  <g fill="none" transform="translate(0 4)">
    <path d="M15,10 L15,23.0228112 C18.6922674,20.6466741 22.5840188,18.4706238 25.5414597,16.5298685 C21.9413176,14.2619329 18.5087421,12.1769091 15,10 Z"/>
    <path d="M25.5262263,16.5298685 C21.9413176,14.2619329 15,10 15,10 L24.2546065,17.3637063 C24.2553319,17.3637063 22.5687854,18.4706238 25.5262263,16.5298685 Z"/>
    <path fill="#24344B" d="M16.1929424,32.4672895 C8.74674894,32.3049874 6.20350936,32.1590014 4.64028025,31.7777203 C3.58265238,31.5243916 2.66357521,30.9619161 1.98968201,30.1461119 C1.46884744,29.5286769 1.05464612,28.5866378 0.733295544,27.2796336 C0.457644933,26.1907497 0.350286275,25.2847776 0.197227646,23.0718014 C-0.0370753723,18.0773622 -0.0929308907,13.9940476 0.197227646,9.43155524 C0.43660844,6.91200839 0.552671854,3.92101259 2.14274064,2.17605035 C2.89352585,1.35938741 3.76690305,0.833837762 4.7476389,0.616576224 C6.27967598,0.272220979 12.8067923,0 19.5638592,0 C26.3056928,0 32.847317,0.272220979 34.3808049,0.616576224 C35.6059993,0.888797203 36.7550271,1.7046014 37.4296457,2.75655944 C38.8804384,5.45815944 38.9058273,8.81755524 39.0530827,11.4453035 C39.114016,12.6973483 39.114016,19.8068671 39.0530827,21.0589119 C38.8238575,25.2117846 38.6396068,26.6810909 38.1187723,28.2044979 C37.7966963,29.1662881 37.5217711,29.6738042 37.0459111,30.2362797 C36.2995967,31.1018549 35.348164,31.6776004 34.3184208,31.8867804 C27.8747251,32.4604196 22.4030605,32.5849371 16.1929424,32.4672895 L16.1929424,32.4672895 Z M26.0605089,15.7802294 C22.4756001,13.5122937 19.0430246,11.4092364 15.5342825,9.23232727 L15.5342825,22.2559972 C19.2265499,19.8798601 23.1190267,17.702951 26.0757422,15.7621958 L26.0605089,15.7802294 Z"/>
  </g>
</svg>
